<?xml version="1.0" standalone="no"?>
<!DOCTYPE svg PUBLIC "-//W3C//DTD SVG 20010904//EN"
 "http://www.w3.org/TR/2001/REC-SVG-20010904/DTD/svg10.dtd">
<svg version="1.0" xmlns="http://www.w3.org/2000/svg"
 width="512.000000pt" height="512.000000pt" viewBox="0 0 512.000000 512.000000"
 preserveAspectRatio="xMidYMid meet">
<metadata>
Created by potrace 1.14, written by Peter Selinger 2001-2017
</metadata>
<g transform="translate(0.000000,512.000000) scale(0.100000,-0.100000)"
fill="#000000" stroke="none">
<path d="M768 5109 c-357 -53 -642 -311 -740 -670 l-23 -84 0 -1795 0 -1795
23 -84 c90 -329 324 -563 653 -653 l84 -23 1795 0 1795 0 84 23 c329 90 563
324 653 653 l23 84 0 1795 0 1795 -23 84 c-89 327 -318 557 -647 653 l-80 23
-1770 1 c-974 1 -1796 -2 -1827 -7z m3040 -1274 c44 -19 394 -363 417 -411 12
-26 15 -83 15 -318 0 -334 2 -327 -95 -427 -64 -67 -65 -67 -65 -124 0 -57 0
-57 69 -129 38 -39 74 -84 80 -99 7 -18 11 -134 11 -310 0 -258 -2 -286 -20
-325 -21 -47 -346 -373 -403 -405 -29 -16 -76 -17 -560 -17 -590 0 -565 -3
-631 70 -22 25 -38 55 -45 89 -15 70 -16 2189 -1 2259 13 60 60 118 114 143
38 17 77 19 559 19 445 0 523 -2 555 -15z m-2638 -296 c34 -15 148 -123 462
-437 439 -439 458 -461 458 -547 0 -85 -20 -109 -448 -538 -224 -225 -426
-420 -450 -434 -50 -30 -141 -34 -188 -10 -38 20 -80 65 -93 100 -16 42 -13
133 5 170 9 18 157 174 330 347 l314 316 0 49 0 49 -320 321 c-213 214 -324
332 -335 357 -30 74 -17 149 38 207 65 69 146 87 227 50z"/>
<path d="M3042 3420 c-57 -35 -62 -62 -62 -319 0 -253 7 -293 58 -328 25 -16
54 -18 317 -18 242 0 293 2 311 15 11 8 53 50 92 92 l72 78 0 161 0 162 -85
86 -84 86 -293 3 c-280 2 -294 2 -326 -18z"/>
<path d="M3053 2345 c-65 -28 -68 -40 -68 -326 0 -206 3 -261 15 -283 28 -54
43 -56 363 -56 l293 0 87 89 87 88 0 157 0 156 -72 81 c-39 45 -86 88 -104 95
-48 20 -555 19 -601 -1z"/>
</g>
</svg>
